<svg aria-hidden="true" style="position: absolute; width: 0; height: 0; overflow: hidden;" version="1.1" xmlns="http://www.w3.org/2000/svg" xmlns:xlink="http://www.w3.org/1999/xlink">
<defs>
<!-- logo -->
    <symbol id="logo" viewBox="0 0 32 32">
    <path fill="#f3f3f3" style="fill: var(--color1, #f3f3f3)" d="M22.13 0h-12.26l-9.87 9.87v12.26l9.87 9.87h12.26l9.87-9.87v-12.26l-9.87-9.87zM11.566 22.284l-6.323-6.323 6.323-6.323c2.39-2.39 6.323-2.39 8.713 0l6.323 6.323-6.323 6.323c-2.39 2.39-6.246 2.39-8.713 0z"></path>
    </symbol>

<!-- header icons -->
    <symbol id="burger" viewBox="0 0 32 32">
    <path fill="none" stroke="#f3f3f3" style="stroke: var(--color1, #f3f3f3)" stroke-linejoin="round" stroke-linecap="round" stroke-miterlimit="4" stroke-width="2" d="M28 13.333h-24"></path>
    <path fill="none" stroke="#f3f3f3" style="stroke: var(--color1, #f3f3f3)" stroke-linejoin="round" stroke-linecap="round" stroke-miterlimit="4" stroke-width="2" d="M28 8h-24"></path>
    <path fill="none" stroke="#f3f3f3" style="stroke: var(--color1, #f3f3f3)" stroke-linejoin="round" stroke-linecap="round" stroke-miterlimit="4" stroke-width="2" d="M28 18.667h-24"></path>
    <path fill="none" stroke="#f3f3f3" style="stroke: var(--color1, #f3f3f3)" stroke-linejoin="round" stroke-linecap="round" stroke-miterlimit="4" stroke-width="2" d="M28 24h-24"></path>
    </symbol>
    <symbol id="pen" viewBox="0 0 32 32">
    <path fill="none" stroke="#f3f3f3" style="stroke: var(--color1, #f3f3f3)" stroke-linejoin="round" stroke-linecap="round" stroke-miterlimit="4" stroke-width="2.9714" d="M3.718 25.217c0.105-0.945 0.158-1.418 0.3-1.859 0.127-0.392 0.306-0.765 0.533-1.109 0.256-0.388 0.592-0.724 1.264-1.396l16.852-16.852c1.473-1.473 3.861-1.473 5.333 0v0c1.473 1.473 1.473 3.861 0 5.333l-16.853 16.852c-0.672 0.672-1.009 1.009-1.396 1.264-0.344 0.227-0.717 0.406-1.109 0.533-0.442 0.143-0.914 0.195-1.859 0.301l-3.45 0.383 0.383-3.45z"></path>
    </symbol>
    <symbol id="user" viewBox="0 0 32 32">
    <path fill="#f3f3f3" style="fill: var(--color1, #f3f3f3)" opacity="0.952941" d="M16 0c8.837 0 16 7.163 16 16s-7.163 16-16 16c-8.837 0-16-7.163-16-16s7.163-16 16-16z"></path>
    <path fill="#939fc0" style="fill: var(--color3, #939fc0)" d="M20.622 17.035c0 2.56-2.075 4.635-4.635 4.635s-4.635-2.075-4.635-4.635c0-2.56 2.075-4.635 4.635-4.635s4.635 2.075 4.635 4.635z"></path>
    <path fill="#939fc0" style="fill: var(--color3, #939fc0)" d="M27.2 32.77c0-1.497-0.295-2.979-0.868-4.363s-1.413-2.64-2.471-3.698c-1.059-1.059-2.315-1.898-3.698-2.471s-2.866-0.868-4.363-0.868-2.979 0.295-4.363 0.868c-1.383 0.573-2.64 1.413-3.698 2.471s-1.898 2.315-2.471 3.698c-0.573 1.383-0.868 2.866-0.868 4.363h22.8z"></path>
    </symbol>
    
    <!-- plus, minus icons-->
    <symbol id="plus" viewBox="0 0 32 32">
    <path id="Vector" d="M14.5 5.83334V22.1667" stroke-width="1.8" stroke-linecap="round" stroke-linejoin="round"/>
    <path id="Vector_2" d="M6.33203 14H22.6654" stroke-width="1.8" stroke-linecap="round" stroke-linejoin="round"/>
    </symbol>
    <symbol id="minus" viewBox="0 0 32 32">
    <path stroke-linejoin="round" stroke-linecap="round" stroke-miterlimit="4" stroke-width="3" d="M5 16h22"></path>
    </symbol>

    <!-- search, close, remove, check -->
    <symbol id="search" viewBox="0 0 32 32">
    <path stroke-linejoin="round" stroke-linecap="round" stroke-miterlimit="4" stroke-width="2.88" d="M14.667 25.333c5.891 0 10.667-4.776 10.667-10.667s-4.776-10.667-10.667-10.667c-5.891 0-10.667 4.776-10.667 10.667s4.776 10.667 10.667 10.667z"></path>
    <path stroke-linejoin="round" stroke-linecap="round" stroke-miterlimit="4" stroke-width="2.88" d="M28 28l-5.8-5.8"></path>
    </symbol>
    <symbol id="close" viewBox="0 0 32 32">
    <path fill="none" stroke="#f3f3f3" style="stroke: var(--color1, #f3f3f3)" stroke-linejoin="round" stroke-linecap="round" stroke-miterlimit="4" stroke-width="2.6667" d="M24 8l-16 16"></path>
    <path fill="none" stroke="#f3f3f3" style="stroke: var(--color1, #f3f3f3)" stroke-linejoin="round" stroke-linecap="round" stroke-miterlimit="4" stroke-width="2.6667" d="M8 8l16 16"></path>
    </symbol>
    <symbol id="remove" viewBox="0 0 33 32">
    <path d="M16 0h1.185c8.837 0 16 7.163 16 16s-7.163 16-16 16h-1.185c-8.837 0-16-7.163-16-16s7.163-16 16-16z"></path>
    <path fill="none" stroke="#f3f3f3" style="stroke: var(--color1, #f3f3f3)" stroke-linejoin="round" stroke-linecap="round" stroke-miterlimit="4" stroke-width="1.1852" d="M18.963 12.444v-0.474c0-0.664 0-0.996-0.129-1.249-0.114-0.223-0.295-0.404-0.518-0.518-0.253-0.129-0.585-0.129-1.249-0.129h-0.948c-0.664 0-0.996 0-1.249 0.129-0.223 0.114-0.404 0.295-0.518 0.518-0.129 0.254-0.129 0.585-0.129 1.249v0.474M15.407 15.704v2.963M17.778 15.704v2.963M11.259 12.444h10.667M20.741 12.444v6.637c0 0.996 0 1.493-0.194 1.874-0.17 0.335-0.442 0.606-0.777 0.777-0.38 0.194-0.878 0.194-1.874 0.194h-2.607c-0.996 0-1.493 0-1.874-0.194-0.335-0.17-0.606-0.442-0.777-0.777-0.194-0.38-0.194-0.878-0.194-1.874v-6.637"></path>
    </symbol>
    <symbol id="check" viewBox="0 0 32 32">
    <path stroke-linejoin="round" stroke-linecap="round" stroke-miterlimit="4" stroke-width="2.6667" d="M28.444 5.333l-15.889 17.778-7.222-8.081"></path>
    </symbol>

<!-- Arrows (dropdown menus, pagination) -->
    <symbol id="chevron-up" viewBox="0 0 30 32">
    <path stroke-linejoin="round" stroke-linecap="round" stroke-miterlimit="4" stroke-width="3.0476" d="M22.857 19.81l-7.619-7.619-7.619 7.619"></path>
    </symbol>
    <symbol id="chevron-down" viewBox="0 0 32 32">
    <path stroke-linejoin="round" stroke-linecap="round" stroke-miterlimit="4" stroke-width="2.88" d="M8 12l8 8 8-8"></path>
    </symbol>
    <symbol id="chevron-next" viewBox="0 0 17 32">
    <path d="M0.758 0.842c-0.24 0.265-0.431 0.58-0.561 0.927s-0.197 0.718-0.197 1.094c0 0.375 0.067 0.747 0.197 1.094s0.321 0.662 0.561 0.927l10.056 11.12-10.056 11.12c-0.485 0.536-0.757 1.263-0.757 2.020s0.272 1.485 0.757 2.020c0.485 0.536 1.142 0.837 1.827 0.837s1.343-0.301 1.827-0.837l11.896-13.154c0.24-0.265 0.431-0.58 0.561-0.927s0.197-0.718 0.197-1.094c0-0.375-0.067-0.747-0.197-1.094s-0.321-0.662-0.561-0.927l-11.896-13.154c-0.985-1.089-2.644-1.089-3.654 0.029z"></path>
    </symbol>
    <symbol id="chevron-prev" viewBox="0 0 17 32">
    <path d="M16.309 0.842c0.24 0.265 0.431 0.58 0.561 0.927s0.197 0.718 0.197 1.094c0 0.375-0.067 0.747-0.197 1.094s-0.321 0.662-0.561 0.927l-10.056 11.12 10.056 11.12c0.485 0.536 0.757 1.263 0.757 2.020s-0.272 1.485-0.757 2.020c-0.485 0.536-1.142 0.837-1.827 0.837s-1.343-0.301-1.827-0.837l-11.896-13.154c-0.24-0.265-0.431-0.58-0.561-0.927s-0.197-0.718-0.197-1.094c0-0.375 0.067-0.747 0.197-1.094s0.321-0.662 0.561-0.927l11.896-13.154c0.985-1.089 2.644-1.089 3.654 0.029z"></path>
    </symbol>

    <!-- Input icons -->
    <symbol id="correct_input" viewBox="0 0 32 32">
    <path d="M14.133 18.4l-2.9-2.9c-0.244-0.244-0.55-0.361-0.916-0.349s-0.673 0.138-0.917 0.383-0.367 0.556-0.367 0.933c0 0.378 0.122 0.689 0.367 0.933l3.8 3.8c0.244 0.244 0.556 0.367 0.933 0.367s0.689-0.122 0.933-0.367l7.567-7.567c0.244-0.244 0.361-0.55 0.351-0.917s-0.14-0.672-0.384-0.916-0.556-0.367-0.933-0.367c-0.378 0-0.689 0.122-0.933 0.367l-6.6 6.6zM16 29.333c-1.844 0-3.578-0.35-5.2-1.051s-3.033-1.649-4.233-2.849-2.15-2.611-2.849-4.233c-0.7-1.622-1.051-3.356-1.051-5.2s0.35-3.578 1.051-5.2c0.7-1.622 1.649-3.033 2.849-4.233s2.611-2.15 4.233-2.851c1.622-0.7 3.356-1.049 5.2-1.049s3.578 0.35 5.2 1.049c1.622 0.7 3.033 1.651 4.233 2.851s2.15 2.611 2.849 4.233c0.7 1.622 1.051 3.356 1.051 5.2s-0.35 3.578-1.051 5.2c-0.7 1.622-1.649 3.033-2.849 4.233s-2.611 2.15-4.233 2.849c-1.622 0.7-3.356 1.051-5.2 1.051zM16 26.667c2.956 0 5.472-1.039 7.551-3.116s3.116-4.595 3.116-7.551c0-2.956-1.039-5.472-3.116-7.551s-4.595-3.116-7.551-3.116c-2.956 0-5.472 1.039-7.549 3.116s-3.117 4.595-3.117 7.551c0 2.956 1.039 5.472 3.117 7.551s4.594 3.116 7.549 3.116z"></path>
    </symbol>
    <symbol id="incorrect_input" viewBox="0 0 32 32">
    <path d="M14.667 20h2.667v2.667h-2.667v-2.667zM14.667 9.333h2.667v8h-2.667v-8zM15.987 2.667c-7.36 0-13.32 5.973-13.32 13.333s5.96 13.333 13.32 13.333c7.373 0 13.347-5.973 13.347-13.333s-5.973-13.333-13.347-13.333zM16 26.667c-5.893 0-10.667-4.773-10.667-10.667s4.773-10.667 10.667-10.667c5.893 0 10.667 4.773 10.667 10.667s-4.773 10.667-10.667 10.667z"></path>
    </symbol>

<!-- Eye icons for password -->
    <symbol id="hide-symbols" viewBox="0 0 32 32">
    <path stroke-linejoin="round" stroke-linecap="round" stroke-miterlimit="4" stroke-width="2.4" d="M23.92 23.92c-2.279 1.737-5.055 2.7-7.92 2.747-9.333 0-14.667-10.667-14.667-10.667 1.659-3.091 3.959-5.791 6.747-7.92M13.2 5.653c0.918-0.215 1.857-0.322 2.8-0.32 9.333 0 14.667 10.667 14.667 10.667-0.809 1.514-1.775 2.94-2.88 4.253M18.827 18.827c-0.366 0.393-0.808 0.708-1.298 0.927s-1.020 0.336-1.557 0.346-1.071-0.089-1.569-0.291c-0.498-0.201-0.951-0.501-1.33-0.88s-0.679-0.832-0.88-1.33c-0.201-0.498-0.3-1.032-0.29-1.569s0.127-1.067 0.346-1.557c0.219-0.491 0.534-0.932 0.927-1.299"></path>
    <path stroke-linejoin="round" stroke-linecap="round" stroke-miterlimit="4" stroke-width="2.4" d="M1.333 1.333l29.333 29.333"></path>
    </symbol>
    <symbol id="show_symbols" viewBox="0 0 32 32">
    <path stroke-linejoin="round" stroke-linecap="round" stroke-miterlimit="4" stroke-width="2.4" d="M1.333 16c0 0 5.333-10.667 14.667-10.667s14.667 10.667 14.667 10.667c0 0-5.333 10.667-14.667 10.667s-14.667-10.667-14.667-10.667z"></path>
    <path stroke-linejoin="round" stroke-linecap="round" stroke-miterlimit="4" stroke-width="2.4" d="M16 20c2.209 0 4-1.791 4-4s-1.791-4-4-4c-2.209 0-4 1.791-4 4s1.791 4 4 4z"></path>
    </symbol>

<!-- Social media icons -->
    <symbol id="instagram" viewBox="0 0 32 32">
    <path d="M24.093 12.663c-0.010-0.684-0.137-1.362-0.379-2.001-0.424-1.092-1.288-1.955-2.382-2.378-0.632-0.238-1.301-0.365-1.978-0.379-0.87-0.039-1.146-0.050-3.355-0.050s-2.492 0-3.356 0.050c-0.676 0.014-1.344 0.142-1.977 0.379-1.094 0.423-1.959 1.286-2.382 2.378-0.238 0.631-0.366 1.299-0.379 1.973-0.039 0.87-0.051 1.145-0.051 3.351s0 2.487 0.051 3.351c0.014 0.676 0.141 1.342 0.379 1.975 0.424 1.091 1.288 1.954 2.383 2.377 0.63 0.246 1.298 0.385 1.977 0.406 0.871 0.039 1.147 0.051 3.356 0.051s2.492 0 3.356-0.051c0.676-0.014 1.344-0.141 1.978-0.378 1.094-0.424 1.958-1.287 2.382-2.378 0.238-0.632 0.365-1.299 0.379-1.975 0.039-0.869 0.051-1.144 0.051-3.351-0.002-2.205-0.002-2.485-0.052-3.35zM15.994 20.156c-2.31 0-4.182-1.869-4.182-4.175s1.872-4.175 4.182-4.175c2.309 0 4.182 1.869 4.182 4.175s-1.874 4.175-4.182 4.175zM20.342 12.625c-0.54 0-0.975-0.435-0.975-0.974s0.435-0.974 0.975-0.974c0.538 0 0.974 0.435 0.974 0.974s-0.436 0.974-0.974 0.974z"></path>
    <path d="M15.995 18.53c1.407 0 2.548-1.141 2.548-2.548s-1.141-2.548-2.548-2.548c-1.407 0-2.548 1.141-2.548 2.548s1.141 2.548 2.548 2.548z"></path>
    <path stroke-linejoin="miter" stroke-linecap="butt" stroke-miterlimit="4" stroke-width="0.7273" d="M7.273 0.364h17.455c3.816 0 6.909 3.093 6.909 6.909v17.455c0 3.816-3.093 6.909-6.909 6.909h-17.455c-3.816 0-6.909-3.093-6.909-6.909v-17.455c0-3.816 3.093-6.909 6.909-6.909z"></path>
    </symbol>
    <symbol id="facebook" viewBox="0 0 32 32">
    <path d="M18.24 8.771c0.153 0 0.305 0 0.611 0v2.291c-0.153 0-0.458 0-0.764 0s-0.611 0-0.764 0.153c-0.153 0.153-0.153 0.305-0.153 0.662 0 0.305 0 0.509 0 0.815h1.68v1.935h-1.68v8.4h-2.596v-8.451h-1.375v-1.935h1.375v-0.662c0-1.12 0.153-1.935 0.458-2.291 0.458-0.662 1.375-0.967 2.749-0.967 0.153 0.051 0.305 0.051 0.458 0.051z"></path>
    <path stroke-linejoin="miter" stroke-linecap="butt" stroke-miterlimit="4" stroke-width="0.7273" d="M7.273 0.364h17.455c3.816 0 6.909 3.093 6.909 6.909v17.455c0 3.816-3.093 6.909-6.909 6.909h-17.455c-3.816 0-6.909-3.093-6.909-6.909v-17.455c0-3.816 3.093-6.909 6.909-6.909z"></path>
    </symbol>
    <symbol id="youtube" viewBox="0 0 32 32">
    <path d="M21.244 9.636c-0.865-0.051-2.647-0.102-5.345-0.102h-0.356c-2.596 0-4.327 0.051-5.193 0.153-1.171 0.102-1.985 0.407-2.444 0.815-0.407 0.356-0.713 1.018-0.815 1.884-0.051 0.56-0.102 1.731-0.102 3.513v0.255c0 1.68 0.051 2.851 0.153 3.411 0.153 0.815 0.407 1.425 0.916 1.782 0.509 0.407 1.375 0.662 2.596 0.764 0.865 0.051 2.647 0.102 5.345 0.102h0.356c2.596 0 4.327-0.051 5.193-0.153 1.171-0.102 1.985-0.407 2.444-0.815 0.407-0.356 0.713-1.018 0.815-1.884 0.051-0.56 0.102-1.731 0.102-3.513v-0.255c0-1.68-0.051-2.851-0.153-3.411-0.153-0.815-0.407-1.425-0.916-1.782-0.509-0.407-1.375-0.662-2.596-0.764zM19.258 15.898l-5.6 3.36v-6.72l5.6 3.36z"></path>
    <path stroke-linejoin="miter" stroke-linecap="butt" stroke-miterlimit="4" stroke-width="0.7273" d="M7.273 0.364h17.455c3.816 0 6.909 3.093 6.909 6.909v17.455c0 3.816-3.093 6.909-6.909 6.909h-17.455c-3.816 0-6.909-3.093-6.909-6.909v-17.455c0-3.816 3.093-6.909 6.909-6.909z"></path>
    </symbol>
</defs>
</svg>
