<svg aria-hidden="true" style="position: absolute; width: 0; height: 0; overflow: hidden;" version="1.1" xmlns="http://www.w3.org/2000/svg" xmlns:xlink="http://www.w3.org/1999/xlink">
<defs>
<!-- logo -->
    <symbol id="logo" viewBox="0 0 32 32">
    <path fill="#f3f3f3" style="fill: var(--color1, #f3f3f3)" d="M22.13 0h-12.26l-9.87 9.87v12.26l9.87 9.87h12.26l9.87-9.87v-12.26l-9.87-9.87zM11.566 22.284l-6.323-6.323 6.323-6.323c2.39-2.39 6.323-2.39 8.713 0l6.323 6.323-6.323 6.323c-2.39 2.39-6.246 2.39-8.713 0z"></path>
    </symbol>

<!-- header icons -->
    <symbol id="burger" viewBox="0 0 32 32">
    <path fill="none" stroke="#f3f3f3" style="stroke: var(--color1, #f3f3f3)" stroke-linejoin="round" stroke-linecap="round" stroke-miterlimit="4" stroke-width="2" d="M28 13.333h-24"></path>
    <path fill="none" stroke="#f3f3f3" style="stroke: var(--color1, #f3f3f3)" stroke-linejoin="round" stroke-linecap="round" stroke-miterlimit="4" stroke-width="2" d="M28 8h-24"></path>
    <path fill="none" stroke="#f3f3f3" style="stroke: var(--color1, #f3f3f3)" stroke-linejoin="round" stroke-linecap="round" stroke-miterlimit="4" stroke-width="2" d="M28 18.667h-24"></path>
    <path fill="none" stroke="#f3f3f3" style="stroke: var(--color1, #f3f3f3)" stroke-linejoin="round" stroke-linecap="round" stroke-miterlimit="4" stroke-width="2" d="M28 24h-24"></path>
    </symbol>
    <symbol id="pen" viewBox="0 0 32 32">
    <path fill="none" stroke="#f3f3f3" style="stroke: var(--color1, #f3f3f3)" stroke-linejoin="round" stroke-linecap="round" stroke-miterlimit="4" stroke-width="2.9714" d="M3.718 25.217c0.105-0.945 0.158-1.418 0.3-1.859 0.127-0.392 0.306-0.765 0.533-1.109 0.256-0.388 0.592-0.724 1.264-1.396l16.852-16.852c1.473-1.473 3.861-1.473 5.333 0v0c1.473 1.473 1.473 3.861 0 5.333l-16.853 16.852c-0.672 0.672-1.009 1.009-1.396 1.264-0.344 0.227-0.717 0.406-1.109 0.533-0.442 0.143-0.914 0.195-1.859 0.301l-3.45 0.383 0.383-3.45z"></path>
    </symbol>
    <symbol id="user" viewBox="0 0 32 32">
    <path fill="#f3f3f3" style="fill: var(--color1, #f3f3f3)" opacity="0.952941" d="M16 0c8.837 0 16 7.163 16 16s-7.163 16-16 16c-8.837 0-16-7.163-16-16s7.163-16 16-16z"></path>
    <path fill="#939fc0" style="fill: var(--color3, #939fc0)" d="M20.622 17.035c0 2.56-2.075 4.635-4.635 4.635s-4.635-2.075-4.635-4.635c0-2.56 2.075-4.635 4.635-4.635s4.635 2.075 4.635 4.635z"></path>
    <path fill="#939fc0" style="fill: var(--color3, #939fc0)" d="M27.2 32.77c0-1.497-0.295-2.979-0.868-4.363s-1.413-2.64-2.471-3.698c-1.059-1.059-2.315-1.898-3.698-2.471s-2.866-0.868-4.363-0.868-2.979 0.295-4.363 0.868c-1.383 0.573-2.64 1.413-3.698 2.471s-1.898 2.315-2.471 3.698c-0.573 1.383-0.868 2.866-0.868 4.363h22.8z"></path>
    </symbol>
    
    <!-- plus, minus icons-->
    <symbol id="plus" viewBox="0 0 32 32">
    <path id="Vector" d="M14.5 5.83334V22.1667" stroke-width="1.8" stroke-linecap="round" stroke-linejoin="round"/>
    <path id="Vector_2" d="M6.33203 14H22.6654" stroke-width="1.8" stroke-linecap="round" stroke-linejoin="round"/>
    </symbol>
    <symbol id="minus" viewBox="0 0 32 32">
    <path stroke-linejoin="round" stroke-linecap="round" stroke-miterlimit="4" stroke-width="3" d="M5 16h22"></path>
    </symbol>

    <!-- search, close, remove, check -->
    <symbol id="search" viewBox="0 0 32 32">
    <path stroke-linejoin="round" stroke-linecap="round" stroke-miterlimit="4" stroke-width="2.88" d="M14.667 25.333c5.891 0 10.667-4.776 10.667-10.667s-4.776-10.667-10.667-10.667c-5.891 0-10.667 4.776-10.667 10.667s4.776 10.667 10.667 10.667z"></path>
    <path stroke-linejoin="round" stroke-linecap="round" stroke-miterlimit="4" stroke-width="2.88" d="M28 28l-5.8-5.8"></path>
    </symbol>
    <symbol id="close" viewBox="0 0 32 32">
    <path fill="none"   stroke-linejoin="round" stroke-linecap="round" stroke-miterlimit="4" stroke-width="2.6667" d="M24 8l-16 16"></path>
    <path fill="none"   stroke-linejoin="round" stroke-linecap="round" stroke-miterlimit="4" stroke-width="2.6667" d="M8 8l16 16"></path>
    </symbol>
    <symbol id="remove" viewBox="0 0 33 32">
    <path d="M16 0h1.185c8.837 0 16 7.163 16 16s-7.163 16-16 16h-1.185c-8.837 0-16-7.163-16-16s7.163-16 16-16z"></path>
    <path fill="none" stroke="#f3f3f3" style="stroke: var(--color1, #f3f3f3)" stroke-linejoin="round" stroke-linecap="round" stroke-miterlimit="4" stroke-width="1.1852" d="M18.963 12.444v-0.474c0-0.664 0-0.996-0.129-1.249-0.114-0.223-0.295-0.404-0.518-0.518-0.253-0.129-0.585-0.129-1.249-0.129h-0.948c-0.664 0-0.996 0-1.249 0.129-0.223 0.114-0.404 0.295-0.518 0.518-0.129 0.254-0.129 0.585-0.129 1.249v0.474M15.407 15.704v2.963M17.778 15.704v2.963M11.259 12.444h10.667M20.741 12.444v6.637c0 0.996 0 1.493-0.194 1.874-0.17 0.335-0.442 0.606-0.777 0.777-0.38 0.194-0.878 0.194-1.874 0.194h-2.607c-0.996 0-1.493 0-1.874-0.194-0.335-0.17-0.606-0.442-0.777-0.777-0.194-0.38-0.194-0.878-0.194-1.874v-6.637"></path>
    </symbol>
    <symbol id="check" viewBox="0 0 32 32">
    <path stroke-linejoin="round" stroke-linecap="round" stroke-miterlimit="4" stroke-width="2.6667" d="M28.444 5.333l-15.889 17.778-7.222-8.081"></path>
    </symbol>

<!-- Arrows (dropdown menus, pagination) -->
    <symbol id="chevron-up" viewBox="0 0 30 32">
    <path stroke-linejoin="round" stroke-linecap="round" stroke-miterlimit="4" stroke-width="3.0476" d="M22.857 19.81l-7.619-7.619-7.619 7.619"></path>
    </symbol>
    <symbol id="chevron-down" viewBox="0 0 32 32">
    <path stroke-linejoin="round" stroke-linecap="round" stroke-miterlimit="4" stroke-width="2.88" d="M8 12l8 8 8-8"></path>
    </symbol>
    <symbol id="chevron-next" viewBox="0 0 17 32">
    <path d="M0.758 0.842c-0.24 0.265-0.431 0.58-0.561 0.927s-0.197 0.718-0.197 1.094c0 0.375 0.067 0.747 0.197 1.094s0.321 0.662 0.561 0.927l10.056 11.12-10.056 11.12c-0.485 0.536-0.757 1.263-0.757 2.020s0.272 1.485 0.757 2.020c0.485 0.536 1.142 0.837 1.827 0.837s1.343-0.301 1.827-0.837l11.896-13.154c0.24-0.265 0.431-0.58 0.561-0.927s0.197-0.718 0.197-1.094c0-0.375-0.067-0.747-0.197-1.094s-0.321-0.662-0.561-0.927l-11.896-13.154c-0.985-1.089-2.644-1.089-3.654 0.029z"></path>
    </symbol>
    <symbol id="chevron-prev" viewBox="0 0 17 32">
    <path d="M16.309 0.842c0.24 0.265 0.431 0.58 0.561 0.927s0.197 0.718 0.197 1.094c0 0.375-0.067 0.747-0.197 1.094s-0.321 0.662-0.561 0.927l-10.056 11.12 10.056 11.12c0.485 0.536 0.757 1.263 0.757 2.020s-0.272 1.485-0.757 2.020c-0.485 0.536-1.142 0.837-1.827 0.837s-1.343-0.301-1.827-0.837l-11.896-13.154c-0.24-0.265-0.431-0.58-0.561-0.927s-0.197-0.718-0.197-1.094c0-0.375 0.067-0.747 0.197-1.094s0.321-0.662 0.561-0.927l11.896-13.154c0.985-1.089 2.644-1.089 3.654 0.029z"></path>
    </symbol>

    <!-- Input icons -->
    <symbol id="correct_input" viewBox="0 0 32 32">
    <path d="M14.133 18.4l-2.9-2.9c-0.244-0.244-0.55-0.361-0.916-0.349s-0.673 0.138-0.917 0.383-0.367 0.556-0.367 0.933c0 0.378 0.122 0.689 0.367 0.933l3.8 3.8c0.244 0.244 0.556 0.367 0.933 0.367s0.689-0.122 0.933-0.367l7.567-7.567c0.244-0.244 0.361-0.55 0.351-0.917s-0.14-0.672-0.384-0.916-0.556-0.367-0.933-0.367c-0.378 0-0.689 0.122-0.933 0.367l-6.6 6.6zM16 29.333c-1.844 0-3.578-0.35-5.2-1.051s-3.033-1.649-4.233-2.849-2.15-2.611-2.849-4.233c-0.7-1.622-1.051-3.356-1.051-5.2s0.35-3.578 1.051-5.2c0.7-1.622 1.649-3.033 2.849-4.233s2.611-2.15 4.233-2.851c1.622-0.7 3.356-1.049 5.2-1.049s3.578 0.35 5.2 1.049c1.622 0.7 3.033 1.651 4.233 2.851s2.15 2.611 2.849 4.233c0.7 1.622 1.051 3.356 1.051 5.2s-0.35 3.578-1.051 5.2c-0.7 1.622-1.649 3.033-2.849 4.233s-2.611 2.15-4.233 2.849c-1.622 0.7-3.356 1.051-5.2 1.051zM16 26.667c2.956 0 5.472-1.039 7.551-3.116s3.116-4.595 3.116-7.551c0-2.956-1.039-5.472-3.116-7.551s-4.595-3.116-7.551-3.116c-2.956 0-5.472 1.039-7.549 3.116s-3.117 4.595-3.117 7.551c0 2.956 1.039 5.472 3.117 7.551s4.594 3.116 7.549 3.116z"></path>
    </symbol>
    <symbol id="incorrect_input" viewBox="0 0 32 32">
    <path d="M14.667 20h2.667v2.667h-2.667v-2.667zM14.667 9.333h2.667v8h-2.667v-8zM15.987 2.667c-7.36 0-13.32 5.973-13.32 13.333s5.96 13.333 13.32 13.333c7.373 0 13.347-5.973 13.347-13.333s-5.973-13.333-13.347-13.333zM16 26.667c-5.893 0-10.667-4.773-10.667-10.667s4.773-10.667 10.667-10.667c5.893 0 10.667 4.773 10.667 10.667s-4.773 10.667-10.667 10.667z"></path>
    </symbol>

<!-- Eye icons for password -->
    <symbol id="hide-symbols" viewBox="0 0 32 32">
    <path stroke-linejoin="round" stroke-linecap="round" stroke-miterlimit="4" stroke-width="2.4" d="M23.92 23.92c-2.279 1.737-5.055 2.7-7.92 2.747-9.333 0-14.667-10.667-14.667-10.667 1.659-3.091 3.959-5.791 6.747-7.92M13.2 5.653c0.918-0.215 1.857-0.322 2.8-0.32 9.333 0 14.667 10.667 14.667 10.667-0.809 1.514-1.775 2.94-2.88 4.253M18.827 18.827c-0.366 0.393-0.808 0.708-1.298 0.927s-1.020 0.336-1.557 0.346-1.071-0.089-1.569-0.291c-0.498-0.201-0.951-0.501-1.33-0.88s-0.679-0.832-0.88-1.33c-0.201-0.498-0.3-1.032-0.29-1.569s0.127-1.067 0.346-1.557c0.219-0.491 0.534-0.932 0.927-1.299"></path>
    <path stroke-linejoin="round" stroke-linecap="round" stroke-miterlimit="4" stroke-width="2.4" d="M1.333 1.333l29.333 29.333"></path>
    </symbol>
    <symbol id="show_symbols" viewBox="0 0 32 32">
    <path stroke-linejoin="round" stroke-linecap="round" stroke-miterlimit="4" stroke-width="2.4" d="M1.333 16c0 0 5.333-10.667 14.667-10.667s14.667 10.667 14.667 10.667c0 0-5.333 10.667-14.667 10.667s-14.667-10.667-14.667-10.667z"></path>
    <path stroke-linejoin="round" stroke-linecap="round" stroke-miterlimit="4" stroke-width="2.4" d="M16 20c2.209 0 4-1.791 4-4s-1.791-4-4-4c-2.209 0-4 1.791-4 4s1.791 4 4 4z"></path>
    </symbol>

<!-- Social media icons -->
    <symbol id="instagram" viewBox="0 0 32 32">
    <g opacity=".8">
    <path d="M25.1278 9.41152c-.0136-.94006-.1878-1.87267-.5211-2.75188-.5834-1.50137-1.7713-2.68855-3.2752-3.26973-.8695-.32659-1.7887-.50169-2.7192-.52156-1.1966-.0534-1.576-.0683-4.6136-.0683-3.0375 0-3.4269 0-4.61479.0683-.92919.01987-1.84843.19497-2.71791.52156-1.50386.58118-2.69302 1.76836-3.27516 3.26973-.32715.86803-.50378 1.78574-.52119 2.71338-.05349 1.19588-.06966 1.57468-.06966 4.60718 0 3.0325 0 3.42.06966 4.6071.01865.9289.19404 1.8454.52119 2.7159.58338 1.5001 1.7713 2.6873 3.27641 3.2685.86575.3378 1.78498.529 2.7179.5588 1.19785.0534 1.57725.0696 4.61485.0696 3.0376 0 3.4269 0 4.6148-.0696.9292-.0186 1.8484-.1937 2.7192-.5203 1.5038-.5824 2.6918-1.7696 3.2751-3.2697.3272-.8693.5026-1.7858.5212-2.7159.0535-1.1946.0697-1.5734.0697-4.6072-.0025-3.0325-.0025-3.4175-.0722-4.60588ZM13.9913 19.7149c-3.1769 0-5.75053-2.5693-5.75053-5.7409 0-3.1716 2.57363-5.74098 5.75053-5.74098 3.1744 0 5.7505 2.56938 5.7505 5.74098s-2.5761 5.7409-5.7505 5.7409Zm5.9794-10.35554c-.7426 0-1.3409-.59856-1.3409-1.33869 0-.74012.5983-1.33868 1.3409-1.33868.7401 0 1.3396.59856 1.3396 1.33868 0 .74013-.5995 1.33869-1.3396 1.33869Z"/>
    <path d="M13.9931 17.4789c1.9349 0 3.5035-1.5685 3.5035-3.5035 0-1.9349-1.5686-3.5035-3.5035-3.5035-1.935 0-3.5035 1.5686-3.5035 3.5035 0 1.935 1.5685 3.5035 3.5035 3.5035Z"/>
    </g>
    </symbol>
    <symbol id="facebook" viewBox="0 0 32 32">
    <path d="M17.08 4.06023h.84v3.15h-1.05c-.42 0-.84 0-1.05.21-.21.21-.21.42-.21.91v1.12h2.31v2.65997h-2.31v11.55h-3.57v-11.62h-1.89V9.38023h1.89v-.91c0-1.54.21-2.66.63-3.15.63-.91 1.89-1.33 3.78-1.33.21.07.42.07.63.07Z" opacity=".8"/>
    </symbol>
    <symbol id="youtube" viewBox="0 0 32 32">
    <path fill-rule="evenodd" d="M21.21 5.24986c-1.19-.07-3.64-.14-7.35-.14h-.49c-3.56996 0-5.94993.07-7.13993.21-1.61.14-2.73003.56-3.36003 1.12-.56.49-.97999 1.4-1.11999 2.59-.07.77-.14 2.38004-.14 4.83004v.35c0 2.31.06999 3.92.20999 4.69.21 1.12.56003 1.96 1.26003 2.45.7.56 1.88998.91 3.56998 1.05 1.19.07 3.64005.14 7.35005.14h.49c3.57 0 5.95-.07 7.14-.21 1.61-.14 2.73-.56 3.36-1.12.56-.49.9799-1.4 1.1199-2.59.07-.77.1401-2.38.1401-4.83v-.35c0-2.31-.07-3.92004-.21-4.69004-.21-1.12-.56-1.96-1.26-2.45-.7-.56-1.8901-.91-3.5701-1.05Zm-2.7299 8.61004-7.7 4.62V9.23986l7.7 4.62004Z" clip-rule="evenodd" opacity=".8"/>
    </symbol>

<!-- Cocktail icon -->
    <symbol fill="none" viewBox="0 0 131 133" id="cocktail">
    <path fill="#F3F3F3" fill-opacity=".1" d="M51.1 132.9c-.5048 0-.9889-.2-1.3459-.555-.3569-.356-.5574-.838-.5574-1.341s.2005-.985.5574-1.34c.357-.356.8411-.556 1.3459-.556h21.6586V87.7353L26.3359 30.4159c-.1922-.2875-.3062-.6198-.3308-.9645-.0247-.3446.041-.6897.1904-1.0015.1495-.3118.3776-.5796.6621-.7772.2845-.1976.6156-.3183.961-.3502h61.7099L100.428 1.17751c.154-.341063.4-.632265.712-.840451.312-.208186.676-.3249763 1.051-.337059h.401l26.888 5.66806c.245.04793.479.14521.685.2859.207.14068.383.32183.517.53238.138.20602.234.43736.282.68058.049.24322.048.49348-.002.73642-.104.42292-.345.80011-.685 1.07398-.34.27387-.761.42939-1.198.44285h-.381l-25.345-5.34872-9.6971 23.23105h27.9501c.357.01.706.1153 1.009.3048.303.1895.549.4564.714.773.14.3241.192.6796.15 1.0302-.042.3506-.177.6838-.391.9656l-46.5226 57.439v41.2929H98.224c.3009-.098.621-.124.934-.076.3129.049.6099.171.866.356.257.185.466.428.61.709.144.281.219.592.219.907 0 .316-.075.627-.219.908-.144.281-.353.524-.61.709-.2561.185-.5531.307-.866.355-.313.049-.6331.023-.934-.076H51.1Zm23.6021-48.6973 30.0539-37.062H85.4813l-9.0562 21.6944c-.1565.3373-.4045.6244-.716.8289-.3115.2045-.6741.3184-1.0471.3287-.2475.0038-.4932-.0438-.7213-.1398-.4514-.2097-.8082-.5794-1.0008-1.0369-.1926-.4575-.2072-.9701-.041-1.4378l15.0868-36.104H31.8858l9.8376 12.1344H72.939l-1.623 3.792H44.7087l29.9934 37.0021ZM92.073 31.2542l-5.049 12.0945h20.777l9.838-12.1544-25.566.0599Z"/>
  <path fill="#F3F3F3" fill-opacity=".1" d="M23.7148 51c-1.8372-.0043-3.668-.2206-5.4568-.6449-5.6547-1.3537-10.62159-4.7607-13.95814-9.5745C.963306 35.9668-.510756 30.0811.157359 24.2405c.668114-5.8407 3.431921-11.23 7.767001-15.14529C12.2594 5.17988 17.8641 3.01095 23.675 3c1.8373.00323 3.6682.2196 5.4568.64485 3.7184.89464 7.1684 2.68451 10.0567 5.21754 2.8882 2.53301 5.1293 5.73431 6.5327 9.33161l.2788.6851h-3.9831l-.1394-.2821c-.5578-1.1699-1.2246-2.2833-1.9915-3.325l-.7568-1.068-8.3644 8.4031-.3386-.4837c-.5136-.7215-1.139-1.3543-1.8521-1.874l-.4779-.3426 8.3644-8.403-1.0356-.7658c-3.3072-2.48871-7.31-3.85053-11.4314-3.88913h-1.2945l1.8123 11.82873h-.8763c-.4606.0011-.9203.0415-1.3741.1209-.3171.0591-.6298.1399-.936.2418l-.5577.1612-1.8122-11.76823-1.2149.38288c-3.754 1.18261-7.0749 3.46955-9.5394 6.56925l-.81653 1.0277 10.31613 5.8841-.3784.4635c-.5606.687-1.0048 1.4633-1.3144 2.2973l-.1992.544-10.27623-5.9043-.45805 1.2091c-.29616.8118-.5488 1.6392-.75679 2.4786-.75466 3.2676-.69992 6.6733.15933 9.9144l.33855 1.2493 10.67459-4.9169.1593.5643c.2402.8617.6168 1.6784 1.1153 2.4181l.3186.5038-10.77414 4.8765.71695 1.0882C9.0656 41.23 11.9355 43.736 15.3106 45.3174l1.175.5239 3.1665-11.5264.5377.2619c.7987.3788 1.6529.6238 2.5292.7255h.5776l-3.1665 11.5062 1.2745.1411c.7463.0965 1.4981.1437 2.2505.1411 1.2685.0141 2.5355-.0939 3.7839-.3225h.2788l2.6487 3.3049-.7369.2014c-1.9356.4811-3.9215.7247-5.9148.7255Z"/>
</symbol>
</defs>
</svg>
