<?xml version="1.0" standalone="no"?>
<!DOCTYPE svg PUBLIC "-//W3C//DTD SVG 20010904//EN"
 "http://www.w3.org/TR/2001/REC-SVG-20010904/DTD/svg10.dtd">
<svg version="1.0" xmlns="http://www.w3.org/2000/svg"
 width="700.000000pt" height="700.000000pt" viewBox="0 0 700.000000 700.000000"
 preserveAspectRatio="xMidYMid meet">
<metadata>
Created by potrace 1.14, written by Peter Selinger 2001-2017
</metadata>
<g transform="translate(0.000000,700.000000) scale(0.100000,-0.100000)"
fill="#000000" stroke="none">
<path d="M1078 5920 l-1078 -1079 0 -1341 0 -1341 1079 -1079 1080 -1080 1342
0 1341 0 1079 1079 1079 1080 0 1341 0 1342 -1079 1079 -1079 1079 -1343 -1
-1344 0 -1077 -1079z m2547 -645 c142 -13 338 -68 452 -128 23 -12 62 -33 87
-46 112 -60 231 -170 924 -863 397 -397 722 -726 722 -731 0 -5 -328 -336
-728 -735 -507 -507 -752 -744 -807 -784 -240 -170 -512 -257 -795 -252 -108
1 -206 11 -265 26 -102 25 -123 31 -169 49 -27 10 -53 19 -58 19 -33 0 -234
116 -349 200 -19 14 -362 352 -763 752 l-730 726 715 714 c393 393 746 739
784 770 74 59 184 127 276 170 124 58 342 112 470 117 35 1 65 4 67 5 3 4 70
0 167 -9z"/>
</g>
</svg>
